<mxfile host="app.diagrams.net" modified="2024-05-31T02:25:58.744Z" agent="Mozilla/5.0 (Windows NT 10.0; Win64; x64) AppleWebKit/537.36 (KHTML, like Gecko) Chrome/125.0.0.0 Safari/537.36" version="24.4.9" etag="v8ia7kxYnEOstPvjmV35" type="github">
  <diagram name="PÃ¡gina-1" id="QmU7xllQcKqlaRADJfal">
    <mxGraphModel>
      <root>
        <mxCell id="0" />
        <mxCell id="1" parent="0" />
      </root>
    </mxGraphModel>
  </diagram>
</mxfile>
